# Candidate intervention boxes. Subtract boxes mark suggested void cuts.
# Units: meters
g candidate_01_INT0005_reorganize
v 33.500 4.200 0.000
v 38.500 4.200 0.000
v 38.500 5.800 0.000
v 33.500 5.800 0.000
v 33.500 4.200 2.800
v 38.500 4.200 2.800
v 38.500 5.800 2.800
v 33.500 5.800 2.800
f 1 2 3 4
f 5 8 7 6
f 1 5 6 2
f 2 6 7 3
f 3 7 8 4
f 4 8 5 1
g candidate_01_INT0009_reorganize
v 66.000 4.200 0.000
v 71.000 4.200 0.000
v 71.000 5.800 0.000
v 66.000 5.800 0.000
v 66.000 4.200 2.800
v 71.000 4.200 2.800
v 71.000 5.800 2.800
v 66.000 5.800 2.800
f 9 10 11 12
f 13 16 15 14
f 9 13 14 10
f 10 14 15 11
f 11 15 16 12
f 12 16 13 9
g candidate_01_INT0011_reorganize
v 81.500 4.200 0.000
v 86.500 4.200 0.000
v 86.500 5.800 0.000
v 81.500 5.800 0.000
v 81.500 4.200 2.800
v 86.500 4.200 2.800
v 86.500 5.800 2.800
v 81.500 5.800 2.800
f 17 18 19 20
f 21 24 23 22
f 17 21 22 18
f 18 22 23 19
f 19 23 24 20
f 20 24 21 17
